<?xml version="1.0" encoding="UTF-8" standalone="no"?>
<svg width="224px" height="74px" viewBox="0 0 224 74" version="1.1" xmlns="http://www.w3.org/2000/svg" xmlns:xlink="http://www.w3.org/1999/xlink">
    <!-- Generator: Sketch 41 (35326) - http://www.bohemiancoding.com/sketch -->
    <title>hivemind_full_color</title>
    <desc>Created with Sketch.</desc>
    <defs>
        <path d="M29.2,2.18461538 C29.2,2.18461538 8.13636894,12.7515454 6.73846154,13.4153846 C2.24615385,15.6615385 0,17.9076923 0,23.5230769 L0,50.4769231 C0,56.0923077 2.24615385,58.3497033 6.73846154,60.5958571 C12.7356403,63.5917178 29.2,71.8153846 29.2,71.8153846 C33.6923077,74.0615385 38.1846154,74.0615385 42.6769231,71.8153846 C47.173892,69.5704646 62.8923077,61.7076923 65.1384615,60.5846154 C69.6307692,58.3384615 71.8769231,56.0923077 71.8769231,50.4769231 C71.8769231,56.0923077 71.8769231,23.5230769 71.8769231,23.5230769 C71.8769231,17.8536771 69.6351563,15.6500225 65.1384615,13.4153846 C65.1384615,13.4153846 47.1692308,4.43076923 42.6769231,2.18461538 C38.1846154,-0.0615384615 33.6923077,-0.0615384615 29.2,2.18461538 Z" id="path-1"></path>
    </defs>
    <g id="Page-1" stroke="none" stroke-width="1" fill="none" fill-rule="evenodd">
        <g id="hivemind_full_color">
            <g id="Group-2">
                <g id="Group">
                    <mask id="mask-2" fill="white">
                        <use xlink:href="#path-1"></use>
                    </mask>
                    <use id="Mask" fill="#FFFFFF" opacity="0" xlink:href="#path-1"></use>
                    <path d="M30,6 C30,6 11.2447121,15.4089103 10,16 C6,18 4,20 4,25 L4,49 C4,54 6,56.0100098 10,58.0100098 C15.3399537,60.677557 30,68 30,68 C34,70 38,70 42,68 C46.0041504,66.0010986 60,59 62,58 C66,56 68,54 68,49 C68,54 68,25 68,25 C68,19.9519043 66.0039062,17.9897461 62,16 C62,16 46,8 42,6 C38,4 34,4 30,6 Z" id="Path-2" fill="#50E3C2" mask="url(#mask-2)"></path>
                    <path d="M36,0.996337891 C36,3.02790218 35.6368082,3.93621424 34.3355871,5.88923718 C32.6368082,8.43896082 32,10.0315643 32,13 C32,15.9686111 32.6369402,17.5609615 34.3358994,20.1094004 C35.6369402,22.0609615 36,22.9686111 36,25 C36,27.0313889 35.6369402,27.9390385 34.3358994,29.8905996 C32.6369402,32.4390385 32,34.0313889 32,37 C32,39.9686111 32.6369402,41.5609615 34.3358994,44.1094004 C35.6369402,46.0609615 36,46.9686111 36,49 C36,51.031576 35.6367994,51.9399322 34.3355663,53.8930526 C32.6367994,56.4428619 32,58.0354822 32,61.0039062 C32,63.9727046 32.6370811,65.5647853 34.336233,68.1118537 C35.6370811,70.0618556 36,70.9687983 36,73 L40,73 C40,70.0312017 39.3629189,68.439121 37.663767,65.8920525 C36.3629189,63.9420507 36,63.0351079 36,61.0039062 C36,58.9723303 36.3632006,58.063974 37.6644337,56.1108537 C39.3632006,53.5610444 40,51.968424 40,49 C40,46.0313889 39.3630598,44.4390385 37.6641006,41.8905996 C36.3630598,39.9390385 36,39.0313889 36,37 C36,34.9686111 36.3630598,34.0609615 37.6641006,32.1094004 C39.3630598,29.5609615 40,27.9686111 40,25 C40,22.0313889 39.3630598,20.4390385 37.6641006,17.8905996 C36.3630598,15.9390385 36,15.0313889 36,13 C36,10.9684357 36.3631918,10.0601236 37.6644129,8.10710071 C39.3631918,5.55737707 40,3.96477361 40,0.996337891 L36,0.996337891 Z" id="Path-5" fill="#00FFD4" mask="url(#mask-2)"></path>
                    <path d="M44,0.996337891 C44,3.02790218 43.6368082,3.93621424 42.3355871,5.88923718 C40.6368082,8.43896082 40,10.0315643 40,13 C40,15.9686111 40.6369402,17.5609615 42.3358994,20.1094004 C43.6369402,22.0609615 44,22.9686111 44,25 C44,27.0313889 43.6369402,27.9390385 42.3358994,29.8905996 C40.6369402,32.4390385 40,34.0313889 40,37 C40,39.9686111 40.6369402,41.5609615 42.3358994,44.1094004 C43.6369402,46.0609615 44,46.9686111 44,49 C44,51.031576 43.6367994,51.9399322 42.3355663,53.8930526 C40.6367994,56.4428619 40,58.0354822 40,61.0039062 C40,63.9727046 40.6370811,65.5647853 42.336233,68.1118537 C43.6370811,70.0618556 44,70.9687983 44,73 L48,73 C48,70.0312017 47.3629189,68.439121 45.663767,65.8920525 C44.3629189,63.9420507 44,63.0351079 44,61.0039062 C44,58.9723303 44.3632006,58.063974 45.6644337,56.1108537 C47.3632006,53.5610444 48,51.968424 48,49 C48,46.0313889 47.3630598,44.4390385 45.6641006,41.8905996 C44.3630598,39.9390385 44,39.0313889 44,37 C44,34.9686111 44.3630598,34.0609615 45.6641006,32.1094004 C47.3630598,29.5609615 48,27.9686111 48,25 C48,22.0313889 47.3630598,20.4390385 45.6641006,17.8905996 C44.3630598,15.9390385 44,15.0313889 44,13 C44,10.9684357 44.3631918,10.0601236 45.6644129,8.10710071 C47.3631918,5.55737707 48,3.96477361 48,0.996337891 L44,0.996337891 Z" id="Path-5" fill="#00FFD4" mask="url(#mask-2)"></path>
                    <path d="M52,0.996337891 C52,3.02790218 51.6368082,3.93621424 50.3355871,5.88923718 C48.6368082,8.43896082 48,10.0315643 48,13 C48,15.9686111 48.6369402,17.5609615 50.3358994,20.1094004 C51.6369402,22.0609615 52,22.9686111 52,25 C52,27.0313889 51.6369402,27.9390385 50.3358994,29.8905996 C48.6369402,32.4390385 48,34.0313889 48,37 C48,39.9686111 48.6369402,41.5609615 50.3358994,44.1094004 C51.6369402,46.0609615 52,46.9686111 52,49 C52,51.031576 51.6367994,51.9399322 50.3355663,53.8930526 C48.6367994,56.4428619 48,58.0354822 48,61.0039062 C48,63.9727046 48.6370811,65.5647853 50.336233,68.1118537 C51.6370811,70.0618556 52,70.9687983 52,73 L56,73 C56,70.0312017 55.3629189,68.439121 53.663767,65.8920525 C52.3629189,63.9420507 52,63.0351079 52,61.0039062 C52,58.9723303 52.3632006,58.063974 53.6644337,56.1108537 C55.3632006,53.5610444 56,51.968424 56,49 C56,46.0313889 55.3630598,44.4390385 53.6641006,41.8905996 C52.3630598,39.9390385 52,39.0313889 52,37 C52,34.9686111 52.3630598,34.0609615 53.6641006,32.1094004 C55.3630598,29.5609615 56,27.9686111 56,25 C56,22.0313889 55.3630598,20.4390385 53.6641006,17.8905996 C52.3630598,15.9390385 52,15.0313889 52,13 C52,10.9684357 52.3631918,10.0601236 53.6644129,8.10710071 C55.3631918,5.55737707 56,3.96477361 56,0.996337891 L52,0.996337891 Z" id="Path-5" fill="#00FFD4" mask="url(#mask-2)"></path>
                    <path d="M60,0.996337891 C60,3.02790218 59.6368082,3.93621424 58.3355871,5.88923718 C56.6368082,8.43896082 56,10.0315643 56,13 C56,15.9686111 56.6369402,17.5609615 58.3358994,20.1094004 C59.6369402,22.0609615 60,22.9686111 60,25 C60,27.0313889 59.6369402,27.9390385 58.3358994,29.8905996 C56.6369402,32.4390385 56,34.0313889 56,37 C56,39.9686111 56.6369402,41.5609615 58.3358994,44.1094004 C59.6369402,46.0609615 60,46.9686111 60,49 C60,51.031576 59.6367994,51.9399322 58.3355663,53.8930526 C56.6367994,56.4428619 56,58.0354822 56,61.0039062 C56,63.9727046 56.6370811,65.5647853 58.336233,68.1118537 C59.6370811,70.0618556 60,70.9687983 60,73 L64,73 C64,70.0312017 63.3629189,68.439121 61.663767,65.8920525 C60.3629189,63.9420507 60,63.0351079 60,61.0039062 C60,58.9723303 60.3632006,58.063974 61.6644337,56.1108537 C63.3632006,53.5610444 64,51.968424 64,49 C64,46.0313889 63.3630598,44.4390385 61.6641006,41.8905996 C60.3630598,39.9390385 60,39.0313889 60,37 C60,34.9686111 60.3630598,34.0609615 61.6641006,32.1094004 C63.3630598,29.5609615 64,27.9686111 64,25 C64,22.0313889 63.3630598,20.4390385 61.6641006,17.8905996 C60.3630598,15.9390385 60,15.0313889 60,13 C60,10.9684357 60.3631918,10.0601236 61.6644129,8.10710071 C63.3631918,5.55737707 64,3.96477361 64,0.996337891 L60,0.996337891 Z" id="Path-5" fill="#00FFD4" mask="url(#mask-2)"></path>
                    <path d="M68,0.996337891 C68,3.02790218 67.6368082,3.93621424 66.3355871,5.88923718 C64.6368082,8.43896082 64,10.0315643 64,13 C64,15.9686111 64.6369402,17.5609615 66.3358994,20.1094004 C67.6369402,22.0609615 68,22.9686111 68,25 C68,27.0313889 67.6369402,27.9390385 66.3358994,29.8905996 C64.6369402,32.4390385 64,34.0313889 64,37 C64,39.9686111 64.6369402,41.5609615 66.3358994,44.1094004 C67.6369402,46.0609615 68,46.9686111 68,49 C68,51.031576 67.6367994,51.9399322 66.3355663,53.8930526 C64.6367994,56.4428619 64,58.0354822 64,61.0039062 C64,63.9727046 64.6370811,65.5647853 66.336233,68.1118537 C67.6370811,70.0618556 68,70.9687983 68,73 L72,73 C72,70.0312017 71.3629189,68.439121 69.663767,65.8920525 C68.3629189,63.9420507 68,63.0351079 68,61.0039062 C68,58.9723303 68.3632006,58.063974 69.6644337,56.1108537 C71.3632006,53.5610444 72,51.968424 72,49 C72,46.0313889 71.3630598,44.4390385 69.6641006,41.8905996 C68.3630598,39.9390385 68,39.0313889 68,37 C68,34.9686111 68.3630598,34.0609615 69.6641006,32.1094004 C71.3630598,29.5609615 72,27.9686111 72,25 C72,22.0313889 71.3630598,20.4390385 69.6641006,17.8905996 C68.3630598,15.9390385 68,15.0313889 68,13 C68,10.9684357 68.3631918,10.0601236 69.6644129,8.10710071 C71.3631918,5.55737707 72,3.96477361 72,0.996337891 L68,0.996337891 Z" id="Path-5" fill="#00FFD4" mask="url(#mask-2)"></path>
                    <path d="M28,0.996337891 C28,3.02790218 27.6368082,3.93621424 26.3355871,5.88923718 C24.6368082,8.43896082 24,10.0315643 24,13 C24,15.9686111 24.6369402,17.5609615 26.3358994,20.1094004 C27.6369402,22.0609615 28,22.9686111 28,25 C28,27.0313889 27.6369402,27.9390385 26.3358994,29.8905996 C24.6369402,32.4390385 24,34.0313889 24,37 C24,39.9686111 24.6369402,41.5609615 26.3358994,44.1094004 C27.6369402,46.0609615 28,46.9686111 28,49 C28,51.031576 27.6367994,51.9399322 26.3355663,53.8930526 C24.6367994,56.4428619 24,58.0354822 24,61.0039062 C24,63.9727046 24.6370811,65.5647853 26.336233,68.1118537 C27.6370811,70.0618556 28,70.9687983 28,73 L32,73 C32,70.0312017 31.3629189,68.439121 29.663767,65.8920525 C28.3629189,63.9420507 28,63.0351079 28,61.0039062 C28,58.9723303 28.3632006,58.063974 29.6644337,56.1108537 C31.3632006,53.5610444 32,51.968424 32,49 C32,46.0313889 31.3630598,44.4390385 29.6641006,41.8905996 C28.3630598,39.9390385 28,39.0313889 28,37 C28,34.9686111 28.3630598,34.0609615 29.6641006,32.1094004 C31.3630598,29.5609615 32,27.9686111 32,25 C32,22.0313889 31.3630598,20.4390385 29.6641006,17.8905996 C28.3630598,15.9390385 28,15.0313889 28,13 C28,10.9684357 28.3631918,10.0601236 29.6644129,8.10710071 C31.3631918,5.55737707 32,3.96477361 32,0.996337891 L28,0.996337891 Z" id="Path-5" fill="#00FFD4" mask="url(#mask-2)"></path>
                    <path d="M20,0.996337891 C20,3.02790218 19.6368082,3.93621424 18.3355871,5.88923718 C16.6368082,8.43896082 16,10.0315643 16,13 C16,15.9686111 16.6369402,17.5609615 18.3358994,20.1094004 C19.6369402,22.0609615 20,22.9686111 20,25 C20,27.0313889 19.6369402,27.9390385 18.3358994,29.8905996 C16.6369402,32.4390385 16,34.0313889 16,37 C16,39.9686111 16.6369402,41.5609615 18.3358994,44.1094004 C19.6369402,46.0609615 20,46.9686111 20,49 C20,51.031576 19.6367994,51.9399322 18.3355663,53.8930526 C16.6367994,56.4428619 16,58.0354822 16,61.0039062 C16,63.9727046 16.6370811,65.5647853 18.336233,68.1118537 C19.6370811,70.0618556 20,70.9687983 20,73 L24,73 C24,70.0312017 23.3629189,68.439121 21.663767,65.8920525 C20.3629189,63.9420507 20,63.0351079 20,61.0039062 C20,58.9723303 20.3632006,58.063974 21.6644337,56.1108537 C23.3632006,53.5610444 24,51.968424 24,49 C24,46.0313889 23.3630598,44.4390385 21.6641006,41.8905996 C20.3630598,39.9390385 20,39.0313889 20,37 C20,34.9686111 20.3630598,34.0609615 21.6641006,32.1094004 C23.3630598,29.5609615 24,27.9686111 24,25 C24,22.0313889 23.3630598,20.4390385 21.6641006,17.8905996 C20.3630598,15.9390385 20,15.0313889 20,13 C20,10.9684357 20.3631918,10.0601236 21.6644129,8.10710071 C23.3631918,5.55737707 24,3.96477361 24,0.996337891 L20,0.996337891 Z" id="Path-5" fill="#00FFD4" mask="url(#mask-2)"></path>
                    <path d="M12,0.996337891 C12,3.02790218 11.6368082,3.93621424 10.3355871,5.88923718 C8.63680818,8.43896082 8,10.0315643 8,13 C8,15.9686111 8.63694018,17.5609615 10.3358994,20.1094004 C11.6369402,22.0609615 12,22.9686111 12,25 C12,27.0313889 11.6369402,27.9390385 10.3358994,29.8905996 C8.63694018,32.4390385 8,34.0313889 8,37 C8,39.9686111 8.63694018,41.5609615 10.3358994,44.1094004 C11.6369402,46.0609615 12,46.9686111 12,49 C12,51.031576 11.6367994,51.9399322 10.3355663,53.8930526 C8.63679938,56.4428619 8,58.0354822 8,61.0039062 C8,63.9727046 8.63708114,65.5647853 10.336233,68.1118537 C11.6370811,70.0618556 12,70.9687983 12,73 L16,73 C16,70.0312017 15.3629189,68.439121 13.663767,65.8920525 C12.3629189,63.9420507 12,63.0351079 12,61.0039062 C12,58.9723303 12.3632006,58.063974 13.6644337,56.1108537 C15.3632006,53.5610444 16,51.968424 16,49 C16,46.0313889 15.3630598,44.4390385 13.6641006,41.8905996 C12.3630598,39.9390385 12,39.0313889 12,37 C12,34.9686111 12.3630598,34.0609615 13.6641006,32.1094004 C15.3630598,29.5609615 16,27.9686111 16,25 C16,22.0313889 15.3630598,20.4390385 13.6641006,17.8905996 C12.3630598,15.9390385 12,15.0313889 12,13 C12,10.9684357 12.3631918,10.0601236 13.6644129,8.10710071 C15.3631918,5.55737707 16,3.96477361 16,0.996337891 L12,0.996337891 Z" id="Path-5" fill="#00FFD4" mask="url(#mask-2)"></path>
                    <path d="M4,0.996337891 C4,3.02790218 3.63680818,3.93621424 2.33558709,5.88923718 C0.636808178,8.43896082 0,10.0315643 0,13 C0,15.9686111 0.636940177,17.5609615 2.33589941,20.1094004 C3.63694018,22.0609615 4,22.9686111 4,25 C4,27.0313889 3.63694018,27.9390385 2.33589941,29.8905996 C0.636940177,32.4390385 0,34.0313889 0,37 C0,39.9686111 0.636940177,41.5609615 2.33589941,44.1094004 C3.63694018,46.0609615 4,46.9686111 4,49 C4,51.031576 3.63679938,51.9399322 2.33556628,53.8930526 C0.636799383,56.4428619 0,58.0354822 0,61.0039062 C0,63.9727046 0.637081144,65.5647853 2.33623299,68.1118537 C3.63708114,70.0618556 4,70.9687983 4,73 L8,73 C8,70.0312017 7.36291886,68.439121 5.66376701,65.8920525 C4.36291886,63.9420507 4,63.0351079 4,61.0039062 C4,58.9723303 4.36320062,58.063974 5.66443372,56.1108537 C7.36320062,53.5610444 8,51.968424 8,49 C8,46.0313889 7.36305982,44.4390385 5.66410059,41.8905996 C4.36305982,39.9390385 4,39.0313889 4,37 C4,34.9686111 4.36305982,34.0609615 5.66410059,32.1094004 C7.36305982,29.5609615 8,27.9686111 8,25 C8,22.0313889 7.36305982,20.4390385 5.66410059,17.8905996 C4.36305982,15.9390385 4,15.0313889 4,13 C4,10.9684357 4.36319182,10.0601236 5.66441291,8.10710071 C7.36319182,5.55737707 8,3.96477361 8,0.996337891 L4,0.996337891 Z" id="Path-5" fill="#00FFD4" mask="url(#mask-2)"></path>
                    <path d="M36,49 C41.5228475,49 46,39.5228475 46,34 C46,28.4771525 41.5228475,27 36,27 C30.4771525,27 26,28.4771525 26,34 C26,39.5228475 30.4771525,49 36,49 Z M36,45 C37.1045695,45 38,44.1045695 38,43 C38,41.8954305 37.1045695,41 36,41 C34.8954305,41 34,41.8954305 34,43 C34,44.1045695 34.8954305,45 36,45 Z" id="Combined-Shape" fill="#000000" mask="url(#mask-2)"></path>
                    <circle id="Oval-8" fill="#000000" mask="url(#mask-2)" cx="25" cy="41" r="1"></circle>
                    <circle id="Oval-8" fill="#000000" mask="url(#mask-2)" cx="46" cy="45" r="1"></circle>
                    <circle id="Oval-8" fill="#000000" mask="url(#mask-2)" cx="46" cy="27" r="1"></circle>
                    <circle id="Oval-8" fill="#000000" mask="url(#mask-2)" cx="30" cy="48" r="1"></circle>
                    <circle id="Oval-8" fill="#000000" mask="url(#mask-2)" cx="40" cy="51" r="1"></circle>
                    <circle id="Oval-8" fill="#000000" mask="url(#mask-2)" cx="42" cy="48" r="1"></circle>
                </g>
                <path d="M103.36,35.01 L103.36,45.09 C103.36,45.72 103.885,46.28 104.55,46.28 C105.215,46.28 105.74,45.72 105.74,45.09 L105.74,23.355 C105.74,22.725 105.215,22.165 104.55,22.165 C103.885,22.165 103.36,22.725 103.36,23.355 L103.36,32.84 L91.18,32.84 L91.18,23.355 C91.18,22.725 90.655,22.165 89.99,22.165 C89.325,22.165 88.8,22.725 88.8,23.355 L88.8,45.09 C88.8,45.72 89.325,46.28 89.99,46.28 C90.655,46.28 91.18,45.72 91.18,45.09 L91.18,35.01 L103.36,35.01 Z M113.02,30.95 C113.02,30.32 112.53,29.83 111.9,29.83 C111.27,29.83 110.78,30.32 110.78,30.95 L110.78,45.16 C110.78,45.79 111.27,46.28 111.9,46.28 C112.53,46.28 113.02,45.79 113.02,45.16 L113.02,30.95 Z M111.9,26.54 C112.74,26.54 113.23,26.05 113.23,25.21 C113.23,24.195 112.74,23.81 111.9,23.81 C111.06,23.81 110.57,24.195 110.57,25.21 C110.57,26.05 111.06,26.54 111.9,26.54 Z M122.96,46.28 C123.415,46.28 123.8,46.035 124.01,45.58 L129.96,31.44 C129.995,31.335 130.065,31.195 130.065,30.95 C130.065,30.32 129.575,29.83 128.945,29.83 C128.315,29.83 128.035,30.215 127.895,30.565 L122.96,42.64 L118.025,30.565 C117.885,30.215 117.605,29.83 116.975,29.83 C116.345,29.83 115.855,30.32 115.855,30.95 C115.855,31.195 115.925,31.335 115.96,31.44 L121.91,45.58 C122.12,46.035 122.505,46.28 122.96,46.28 Z M131.85,38.02 C131.85,43.9 134.755,46.455 139.41,46.455 C142.525,46.455 144.345,45.02 144.87,44.495 C145.08,44.285 145.255,44.075 145.255,43.69 C145.255,43.13 144.8,42.675 144.24,42.675 C143.96,42.675 143.82,42.745 143.61,42.885 C142.63,43.62 141.44,44.39 139.41,44.39 C136.12,44.39 134.125,42.15 134.125,38.685 L144.345,38.685 C145.745,38.685 145.745,37.46 145.745,36.445 C145.745,34.065 144.66,29.62 139.06,29.62 C134.51,29.62 131.85,32.63 131.85,38.02 Z M143.54,36.725 L134.125,36.725 C134.335,33.61 136.015,31.65 139.06,31.65 C142.665,31.65 143.54,34.205 143.54,36.725 Z M166.675,29.62 C163.98,29.62 162.44,30.705 161.565,32.07 C160.725,30.67 158.87,29.62 156,29.62 C153.725,29.62 152.045,30.775 151.45,32.07 L151.45,30.95 C151.45,30.32 150.96,29.83 150.33,29.83 C149.7,29.83 149.21,30.32 149.21,30.95 L149.21,45.16 C149.21,45.79 149.7,46.28 150.33,46.28 C150.96,46.28 151.45,45.79 151.45,45.16 L151.45,36.515 C151.45,33.575 152.5,31.615 155.755,31.615 C159.185,31.615 160.06,33.505 160.06,36.27 L160.06,45.16 C160.06,45.79 160.55,46.28 161.18,46.28 C161.81,46.28 162.3,45.79 162.3,45.16 L162.3,35.815 C162.3,33.225 163.665,31.615 166.675,31.615 C170.07,31.615 171.05,33.505 171.05,36.27 L171.05,45.16 C171.05,45.79 171.54,46.28 172.17,46.28 C172.8,46.28 173.29,45.79 173.29,45.16 L173.29,35.815 C173.29,32.84 172.065,29.62 166.675,29.62 Z M179.695,30.95 C179.695,30.32 179.205,29.83 178.575,29.83 C177.945,29.83 177.455,30.32 177.455,30.95 L177.455,45.16 C177.455,45.79 177.945,46.28 178.575,46.28 C179.205,46.28 179.695,45.79 179.695,45.16 L179.695,30.95 Z M178.575,26.54 C179.415,26.54 179.905,26.05 179.905,25.21 C179.905,24.195 179.415,23.81 178.575,23.81 C177.735,23.81 177.245,24.195 177.245,25.21 C177.245,26.05 177.735,26.54 178.575,26.54 Z M191.14,29.62 C188.865,29.62 187.15,30.74 186.485,32.07 L186.485,30.95 C186.485,30.32 185.995,29.83 185.365,29.83 C184.735,29.83 184.245,30.32 184.245,30.95 L184.245,45.16 C184.245,45.79 184.735,46.28 185.365,46.28 C185.995,46.28 186.485,45.79 186.485,45.16 L186.485,36.515 C186.485,33.715 187.675,31.615 191.14,31.615 C194.535,31.615 195.34,33.505 195.34,36.27 L195.34,45.16 C195.34,45.79 195.83,46.28 196.46,46.28 C197.09,46.28 197.58,45.79 197.58,45.16 L197.58,35.815 C197.58,32.84 196.53,29.62 191.14,29.62 Z M212.525,39.56 C212.525,42.885 210.6,44.425 207.905,44.425 C204.685,44.425 202.97,42.395 202.97,38.02 C202.97,33.715 204.72,31.65 207.905,31.65 C211.195,31.65 212.525,34.73 212.525,34.73 L212.525,39.56 Z M207.765,29.62 C203.25,29.62 200.73,32.28 200.73,38.02 C200.73,43.76 203.39,46.455 207.905,46.455 C211.895,46.455 214.765,44.18 214.765,39.56 L214.765,22.2 C214.765,21.57 214.275,21.08 213.645,21.08 C213.015,21.08 212.525,21.57 212.525,22.2 L212.525,31.895 C211.72,30.775 210.005,29.62 207.765,29.62 Z" id="Hivemind" fill="#000000"></path>
            </g>
        </g>
    </g>
</svg>